<?xml version="1.0" encoding="UTF-8"?><svg id="Ebene_1" xmlns="http://www.w3.org/2000/svg" width="117.883" height="160" viewBox="0 0 117.883 160"><path d="M113.958,156.124h-31.001c-.584-3.637-1.092-7.822-1.528-12.554-.437-4.728-.802-9.64-1.092-14.736h-3.93c-1.894,5.677-4.731,10.845-8.515,15.501-3.786,4.659-8.48,8.296-14.081,10.916-5.605,2.619-11.898,3.93-18.885,3.93-6.26,0-11.898-1.238-16.92-3.712-5.021-2.473-8.951-6.112-11.789-10.916-2.838-4.803-4.258-10.769-4.258-17.901,0-6.693,1.311-12.188,3.93-16.483,2.62-4.291,6.332-7.713,11.135-10.261,4.803-2.545,10.589-4.656,17.356-6.331,6.768-1.672,14.225-3.091,22.378-4.258,4.803-.873,8.657-1.671,11.57-2.401,2.91-.727,5.093-1.78,6.55-3.165,1.453-1.382,2.184-3.385,2.184-6.004,0-3.783-1.348-6.949-4.039-9.497-2.695-2.544-6.877-3.82-12.554-3.82-3.93,0-7.569.692-10.916,2.074-3.35,1.385-6.15,3.493-8.405,6.331-2.258,2.838-3.896,6.297-4.912,10.371l-31.001-8.296c1.6-6.55,4.11-12.151,7.532-16.811,3.418-4.657,7.565-8.515,12.443-11.571,4.875-3.056,10.37-5.273,16.483-6.659,6.113-1.381,12.662-2.074,19.648-2.074,11.643,0,21.14,1.893,28.491,5.676,7.348,3.786,12.806,9.606,16.374,17.465,3.564,7.859,5.349,17.831,5.349,29.91v18.121c0,5.096.109,10.298.327,15.609.219,5.314.471,10.588.765,15.828.289,5.239.727,10.479,1.31,15.719Z"/></svg>