<?xml version="1.0" encoding="UTF-8"?><svg id="Ebene_1" xmlns="http://www.w3.org/2000/svg" width="117.883" height="160" viewBox="0 0 117.883 160"><path d="M115.284,123.734c-1.01,5.19-2.703,9.986-5.082,14.383-2.38,4.4-5.661,8.256-9.842,11.571-4.184,3.318-9.337,5.877-15.464,7.678-6.131,1.802-13.376,2.704-21.736,2.704-9.662,0-18.243-1.298-25.738-3.894-7.499-2.596-13.809-6.38-18.925-11.354-5.12-4.975-9.014-11.064-11.68-18.276-2.67-7.208-4.001-15.356-4.001-24.44,0-8.938,1.261-17.229,3.785-24.874,2.521-7.641,6.271-14.237,11.246-19.79,4.975-5.549,11.102-9.875,18.385-12.977,7.279-3.099,15.464-4.65,24.548-4.65,9.227,0,17.337,1.514,24.332,4.542,6.992,3.028,12.761,7.428,17.303,13.193,4.542,5.769,7.82,12.798,9.842,21.088,2.018,8.293,2.595,17.627,1.729,28.009l-77.61.759c.744,8.689,3.146,15.215,7.21,19.572,4.975,5.336,11.426,8.002,19.357,8.002,3.894,0,7.101-.503,9.625-1.514,2.521-1.007,4.612-2.342,6.272-4.001,1.655-1.656,2.919-3.531,3.784-5.624.865-2.088,1.585-4.143,2.163-6.164l30.496,6.057Z"/></svg>