<?xml version="1.0" encoding="UTF-8"?><svg id="Ebene_1" xmlns="http://www.w3.org/2000/svg" width="117.883" height="160" viewBox="0 0 117.883 160"><path d="M116.947,98.014v61.986h-36.122v-56.412c0-11.741-1.672-20.476-5.017-26.199-3.345-5.721-8.438-8.584-15.274-8.584-5.501,0-10.034,1.71-13.601,5.128-3.568,3.421-6.243,8.065-8.027,13.936-1.784,5.874-2.675,12.675-2.675,20.402v51.729H.332V.128h35.899v35.676c0,2.975-.112,6.208-.334,9.699-.223,3.495-.596,7.062-1.115,10.703-.522,3.645-1.08,7.285-1.672,10.926-.596,3.644-1.192,7.1-1.784,10.368h4.906c1.93-7.877,4.459-14.678,7.581-20.402,3.122-5.721,7.247-10.146,12.375-13.267s11.629-4.682,19.51-4.682c13.824,0,24.154,4.832,30.993,14.493,6.835,9.665,10.257,24.454,10.257,44.372Z"/></svg>