<?xml version="1.0" encoding="UTF-8"?><svg id="Ebene_1" xmlns="http://www.w3.org/2000/svg" width="117.883" height="160" viewBox="0 0 117.883 160"><path d="M116.515,99.425v60.575h-35.555v-56.405c0-11.557-1.646-19.973-4.938-25.239-3.292-5.268-8.23-7.901-14.814-7.901-5.415,0-9.876,1.646-13.388,4.938-3.512,3.292-6.184,7.83-8.011,13.608-1.831,5.781-2.744,12.4-2.744,19.862v51.138H1.73V44.117h28.531l.439,35.775h4.17c1.756-8.632,4.352-15.837,7.791-21.619,3.437-5.778,7.864-10.096,13.278-12.949,5.412-2.854,11.852-4.28,19.314-4.28,13.46,0,23.703,4.684,30.727,14.046,7.022,9.365,10.534,24.143,10.534,44.334Z"/></svg>