<?xml version="1.0" encoding="UTF-8"?><svg id="Ebene_1" xmlns="http://www.w3.org/2000/svg" width="117.883" height="160" viewBox="0 0 117.883 160"><path d="M117.19,123.008c0,7.618-2.235,14.155-6.707,19.613-4.472,5.463-10.943,9.665-19.416,12.609-8.473,2.943-18.908,4.418-31.301,4.418-8.318,0-15.849-.684-22.593-2.048-6.748-1.364-12.672-3.411-17.769-6.142-5.101-2.728-9.219-6.035-12.355-9.914-3.141-3.88-5.178-8.261-6.119-13.148l28.947-10.346c.941,2.731,2.743,5.388,5.413,7.975,2.666,2.586,6.236,4.671,10.708,6.251,4.472,1.583,9.921,2.371,16.356,2.371,6.119,0,10.943-.826,14.474-2.479,3.53-1.65,5.295-4.058,5.295-7.22,0-2.297-.941-4.095-2.824-5.388s-4.747-2.478-8.59-3.556c-3.847-1.078-8.748-2.188-14.709-3.34-6.119-1.148-12.278-2.512-18.475-4.095-6.2-1.579-11.885-3.698-17.062-6.358-5.178-2.657-9.336-6.143-12.473-10.454-3.141-4.31-4.707-9.769-4.707-16.38,0-7.183,2.077-13.397,6.236-18.643,4.155-5.244,10.274-9.375,18.356-12.393,8.079-3.017,17.846-4.526,29.301-4.526,10.197,0,19.258,1.26,27.183,3.772,7.921,2.516,14.474,6.109,19.651,10.776,5.177,4.671,8.626,10.453,10.354,17.35l-30.595,8.836c-.629-3.159-2.118-5.927-4.472-8.298-2.354-2.371-5.376-4.203-9.061-5.496-3.688-1.293-8.042-1.94-13.062-1.94-5.965,0-10.591.862-13.886,2.586-3.294,1.724-4.941,4.025-4.941,6.897,0,2.3,1.096,4.203,3.295,5.711,2.195,1.509,5.372,2.768,9.531,3.772,4.155,1.007,9.215,2.085,15.18,3.233,6.119,1.151,12.156,2.479,18.121,3.987,5.961,1.509,11.414,3.556,16.356,6.142s8.902,5.928,11.885,10.022c2.979,4.095,4.472,9.375,4.472,15.841Z"/></svg>